# xmcd
#
# Track frame offsets:
#	150
#	12997
#	27060
#	47002
#	62727
#	81245
#	92757
#	106380
#	134680
#	152910
#	167610
#	184892
#	202165
#	216097
#	232895
#	245890
#
# Disc length: 3742 seconds
#
# Revision: 0
# Processed by: cddbd v1.5.2PL0 Copyright (c) Steve Scherf et al.
# Submitted via: EasyCDDAExtractor 10.0.3.1
#
DISCID=e00e9c10
DTITLE=Various Artist - 1996 Sugar Hill Sampler
DYEAR=1996
DGENRE=
TTITLE0=Chris Hillman and Herb Pedersen - Close Up The Honky Tonks
TTITLE1=Nashville Bluegrass Band - One More Dollar
TTITLE2=Sam Bush - The Ballad of Spider John
TTITLE3=Terry Allen - Back To Black
TTITLE4=Robin and Linda Williams - Sugar For Sugar
TTITLE5=Jerry Douglas and Peter Rowan - You Taught Me How To Lose
TTITLE6=Mollie O'Brien - If I Live
TTITLE7=Psychograss - 3rd stone From The Sun
TTITLE8=Tim O'Brien - Señor (Tales of Yankee Power)
TTITLE9=Lonesome River Band - Sorry County Blues
TTITLE10=Sweethearts Of The Rodeo - Beautiful Lies
TTITLE11=Tom Paxton - Along The Verdigris
TTITLE12=Doc Watson - Singing The Blues
TTITLE13=Jerry Douglas, Russ Barenberg and Edgar Meyer - Big Bug Shuffle
TTITLE14=Townes Van Zandt - Gone Too Long
TTITLE15=Robert Earl Keen - The road Goes On Forever
EXTD=
EXTT0=
EXTT1=
EXTT2=
EXTT3=
EXTT4=
EXTT5=
EXTT6=
EXTT7=
EXTT8=
EXTT9=
EXTT10=
EXTT11=
EXTT12=
EXTT13=
EXTT14=
EXTT15=
PLAYORDER=
